<svg xmlns="http://www.w3.org/2000/svg" width="150.285" height="322.393" viewBox="0 0 150.285 322.393">
  <g id="그룹_206" data-name="그룹 206" transform="translate(-4086.553 -964.243)">
    <g id="그룹_179" data-name="그룹 179" transform="translate(4136.243 1025.628)">
      <line id="선_9" data-name="선 9" x2="15.533" transform="translate(0 0)" fill="none" stroke="#e3e4f9" stroke-width="1"/>
      <line id="선_10" data-name="선 10" x2="31.066" transform="translate(0 5.974)" fill="none" stroke="#e3e4f9" stroke-width="1"/>
      <line id="선_11" data-name="선 11" x2="31.066" transform="translate(0 11.949)" fill="none" stroke="#e3e4f9" stroke-width="1"/>
      <line id="선_12" data-name="선 12" x2="31.066" transform="translate(0 17.923)" fill="none" stroke="#e3e4f9" stroke-width="1"/>
    </g>
    <g id="그룹_185" data-name="그룹 185" transform="translate(4141.201 1164.483)">
      <path id="패스_91" data-name="패스 91" d="M-2696.064,2254.21v109.6l-3.01,2.376,11.879,5.227h13.621s.792,0-1.425-7.6,11.72-109.6,11.72-109.6Z" transform="translate(2713.743 -2254.21)" fill="#ffcbc3"/>
      <path id="패스_89" data-name="패스 89" d="M-2697.235,2347.668l-13.036,8.041s-3.046,2.68,1.1,2.68h17.667l4.63-3.655h1.583v3.655h14.743v-4.874h-8.772l8.772-4.629-1.828-2.437-10.234,7.066h-2.681Z" transform="translate(2711.351 -2236.236)" fill="#011f3b"/>
    </g>
    <g id="그룹_186" data-name="그룹 186" transform="translate(4194.97 1164.483)">
      <path id="패스_92" data-name="패스 92" d="M-2658.909,2254.21A843.678,843.678,0,0,0-2650.2,2363.5l-2.772,2.376,12.2,5.543h14.255a19.948,19.948,0,0,0-1.742-7.919l1.742-109.288Z" transform="translate(2667.801 -2254.21)" fill="#ffcbc3"/>
      <path id="패스_90" data-name="패스 90" d="M-2697.235,2347.668l-13.036,8.041s-3.046,2.68,1.1,2.68h17.667l4.63-3.655h1.583v3.655h14.743v-4.874h-8.772l8.772-4.629-1.828-2.437-10.234,7.066h-2.681Z" transform="translate(2711.351 -2236.236)" fill="#011f3b"/>
    </g>
    <path id="패스_562" data-name="패스 562" d="M-2694.359,2139.942l13.4,23.393s-20.712,16.326-35.7,9.5c0,0-34.023-30.824-40.328-43.861,0,0-.859-1.788,2.4-.778,0,0-2.423-5.452,1.767-3.534,0,0-3.181-4.948,1.54-3.71,0,0-5.9-5.795-5.7-7.812,0,0,1.779-1.389,10.575,7.813,0,0-3.316-7.236,1.082-3.848,0,0,35.2,32.911,38.372,31.4Z" transform="translate(6843.639 -1118.426)" fill="#ffcac2"/>
    <path id="패스_563" data-name="패스 563" d="M-2634.31,2146.6s5.971,15.108,6.093,23.149c0,0-5.362,24.977-9.26,28.754,0,0-5.482-9.99-8.407-11.94,0,0,4.63-33.505,3.533-35.942Z" transform="translate(6862.918 -1110.697)" fill="#ffcac2"/>
    <g id="그룹_187" data-name="그룹 187" transform="translate(4146.987 1003.914)">
      <path id="패스_95" data-name="패스 95" d="M-2689.035,2163.111l6.019,29.935h49.575l3.01-36.429,9.186-6.335s-12.988-28.034-22.491-28.668c0,0-22.174-5.7-39.28-.792,0,0-16.79,10.3-22.491,18.374l15.522,25.025Z" transform="translate(2705.507 -2118.827)" fill="#2d79e9"/>
      <path id="패스_96" data-name="패스 96" d="M-2701.664,2132.294l14.572,26.609" transform="translate(2706.257 -2116.204)" fill="none" stroke="#0e1d48" stroke-width="1"/>
      <path id="패스_97" data-name="패스 97" d="M-2679.18,2148.731l-11.879,8.4" transform="translate(2708.323 -2113.001)" fill="none" stroke="#0e1d48" stroke-width="1"/>
      <path id="패스_98" data-name="패스 98" d="M-2644,2134.547s2.535,13.146,1.742,18.532" transform="translate(2717.493 -2115.764)" fill="none" stroke="#0e1d48" stroke-width="1"/>
      <path id="패스_99" data-name="패스 99" d="M-2642.414,2146.619l7.449-4.118" transform="translate(2717.802 -2114.214)" fill="none" stroke="#0e1d48" stroke-width="1"/>
    </g>
    <g id="그룹_188" data-name="그룹 188" transform="translate(4157.005 1077.817)">
      <path id="패스_93" data-name="패스 93" d="M-2684.927,2180.678s-6.653,4.118-8.871,22.491c0,0-2.693,14.691-3.326,64.939h79.827s.832-75.512-18.017-87.43Z" transform="translate(2697.124 -2180.678)" fill="#0f43a9"/>
      <path id="패스_94" data-name="패스 94" d="M-2683.222,2180.945s-12.184,15.227-8.169,86.964" transform="translate(2698.083 -2180.626)" fill="none" stroke="#0e1d48" stroke-width="1"/>
    </g>
    <path id="패스_564" data-name="패스 564" d="M-2675.537,2123.861l-.333-6.489s-6.655-2-7.542-6.932a20.688,20.688,0,0,1,8.924-15.728l2.563.35a22.441,22.441,0,0,0,1.829,8.87s5.323.435,0,7.977l-4.387,13.061Z" transform="translate(6857.995 -1122.001)" fill="#ffcbc3"/>
    <path id="패스_565" data-name="패스 565" d="M-2678.344,2098.337a4.736,4.736,0,0,1,2.777,2.2" transform="translate(6858.982 -1121.295)" fill="none" stroke="#011f3b" stroke-width="1"/>
    <path id="패스_566" data-name="패스 566" d="M-2681.635,2104.528l3.306,1.943s-2.473,3.71-3.937,2.348C-2682.266,2108.819-2682.948,2105.411-2681.635,2104.528Z" transform="translate(6858.184 -1120.09)" fill="#fff"/>
    <ellipse id="타원_116" data-name="타원 116" cx="0.597" cy="1.195" rx="0.597" ry="1.195" transform="matrix(0.899, 0.438, -0.438, 0.899, 4180.311, 978.888)" fill="#011f3b"/>
    <path id="패스_567" data-name="패스 567" d="M-2677.152,2129.123s14.413,4.752,28.985,1.584c0,0,3.168-26.451-9.187-36.113,0,0,6.653-3.327,0-6.97,0,0-6.019.476-3.168,5.544,0,0-12.512-3.8-18.214,0,0,0,1.9,3.485,5.069,3.326,0,0-.95,9.5.792,10.137,0,0,6.336-.633,0,5.7Z" transform="translate(6858.906 -1123.382)" fill="#011e3c"/>
  </g>
</svg>
