<svg xmlns="http://www.w3.org/2000/svg" width="173.539" height="334.927" viewBox="0 0 173.539 334.927">
  <g id="그룹_202" data-name="그룹 202" transform="translate(-2065.953 -496.668)">
    <path id="패스_538" data-name="패스 538" d="M-3018.509,2102.05a3.927,3.927,0,0,1,2.428,3.922,2.56,2.56,0,0,1-1.776,2.123S-3018.1,2102.323-3018.509,2102.05Z" transform="translate(5169.339 -1587.58)" fill="#f7bcac"/>
    <path id="패스_539" data-name="패스 539" d="M-3038.254,2116.574s-6.536-13.4-1.159-20.1a4.907,4.907,0,0,1,2.978-1.881s1.822-6.238,10-6.834c0,0,10.578-.917,13.511,7.522,0,0,1.11,3.991-1.067,3.669,0,0-7.289,3.165-16.933-1.285l1.789,14.552Z" transform="translate(5163.702 -1591.061)" fill="#4a1a1a"/>
    <g id="그룹_173" data-name="그룹 173" transform="matrix(0.999, 0.035, -0.035, 0.999, 2170.864, 534.398)">
      <path id="패스_70" data-name="패스 70" d="M1.648,63.162S8.112,74.316,23.2,71.147c0,0,25.859-3.961,44.745-55.646,0,0,.676-.036.728-3.713,0,0-.657-1.077-1.891.866,0,0,1-4.017-1.891-2.389,0,0,1.628-4.858-2.469-2.416,0,0,4.045-6.67,3.729-7.432,0,0-.709-1.76-2.941,1.943,0,0-4.254,6.3-4.806,6.04,0,0,2.652-6.592-.342-3.335,0,0-29.793,38.163-36.765,37.529l-4.563-4.817L0,49.567Z" transform="translate(0 0)" fill="#ffcbc3"/>
      <path id="패스_87" data-name="패스 87" d="M1.878,0A11.293,11.293,0,0,1,0,7.2" transform="translate(54.418 10.004)" fill="none" stroke="#f4988d" stroke-width="0.5"/>
      <path id="패스_88" data-name="패스 88" d="M2.442,0s-6.9,14.774,2.492,1.741c0,0-6.418,13.562,2.219,2.057,0,0-5.053,11.539,2.014,1.878" transform="translate(58.156 9.833)" fill="none" stroke="#f4988d" stroke-width="0.5"/>
    </g>
    <g id="그룹_181" data-name="그룹 181" transform="translate(2090.231 814.611)">
      <path id="패스_39" data-name="패스 39" d="M-3065.143,2345.132l-2.062,13.951s-.667,1.334,2.729,1.4h45.129a7.791,7.791,0,0,0,0-5.277s-.183-.788-2.427-3.639l-19.167-8.068s-6.43,2.608-12.131,2.487A81.549,81.549,0,0,1-3065.143,2345.132Z" transform="translate(3067.258 -2343.494)" fill="#011e3c"/>
      <path id="패스_40" data-name="패스 40" d="M-3066.025,2348.666s10.013.179,12.6,7.107" transform="translate(3067.558 -2342.237)" fill="none" stroke="#2c78e8" stroke-width="1"/>
      <path id="패스_41" data-name="패스 41" d="M-3066.747,2354.383h47.555" transform="translate(3067.382 -2340.847)" fill="none" stroke="#2c78e8" stroke-width="1"/>
      <path id="패스_42" data-name="패스 42" d="M-3036.525,2355.448s2.054-6.02,3.733-6.486" transform="translate(3074.729 -2342.165)" fill="none" stroke="#2c78e8" stroke-width="1"/>
      <path id="패스_43" data-name="패스 43" d="M-3040.391,2350.177l1.5-3.654" transform="translate(3074.249 -2342.758)" fill="none" stroke="#2c78e8" stroke-width="1"/>
      <path id="패스_44" data-name="패스 44" d="M-3042.343,2349.755l1.581-3.8" transform="translate(3073.315 -2343.326)" fill="none" stroke="#2c78e8" stroke-width="1"/>
      <path id="패스_45" data-name="패스 45" d="M-3044.708,2348.61l1.753-3.814" transform="translate(3072.74 -2343.328)" fill="none" stroke="#2c78e8" stroke-width="1"/>
    </g>
    <g id="그룹_182" data-name="그룹 182" transform="translate(2153.63 814.611)">
      <path id="패스_46" data-name="패스 46" d="M-3065.143,2345.132l-2.062,13.951s-.667,1.334,2.729,1.4h45.129a7.791,7.791,0,0,0,0-5.277s-.183-.788-2.427-3.639l-19.167-8.068s-6.43,2.608-12.131,2.487A81.549,81.549,0,0,1-3065.143,2345.132Z" transform="translate(3067.258 -2343.494)" fill="#011e3c"/>
      <path id="패스_48" data-name="패스 48" d="M-3066.025,2348.666s10.013.179,12.6,7.107" transform="translate(3067.558 -2342.237)" fill="none" stroke="#2c78e8" stroke-width="1"/>
      <path id="패스_47" data-name="패스 47" d="M-3066.747,2354.383h47.555" transform="translate(3067.382 -2340.847)" fill="none" stroke="#2c78e8" stroke-width="1"/>
      <path id="패스_49" data-name="패스 49" d="M-3036.525,2355.448s2.054-6.02,3.733-6.486" transform="translate(3074.729 -2342.165)" fill="none" stroke="#2c78e8" stroke-width="1"/>
      <path id="패스_50" data-name="패스 50" d="M-3040.391,2350.177l1.5-3.654" transform="translate(3074.249 -2342.758)" fill="none" stroke="#2c78e8" stroke-width="1"/>
      <path id="패스_51" data-name="패스 51" d="M-3042.343,2349.755l1.581-3.8" transform="translate(3073.315 -2343.326)" fill="none" stroke="#2c78e8" stroke-width="1"/>
      <path id="패스_52" data-name="패스 52" d="M-3044.708,2348.61l1.753-3.814" transform="translate(3072.74 -2343.328)" fill="none" stroke="#2c78e8" stroke-width="1"/>
    </g>
    <path id="패스_543" data-name="패스 543" d="M-3064.323,2340.09l-.346,5.943s13.154,3.635,23.366-1.615l.462-4.327Z" transform="translate(5158.118 -1529.711)" fill="#ffcbc3"/>
    <path id="패스_544" data-name="패스 544" d="M-3015.11,2340.09l.975,5.78s12.578,4,23.888-1.56v-4.22Z" transform="translate(5170.166 -1529.711)" fill="#ffcbc3"/>
    <g id="그룹_183" data-name="그룹 183" transform="translate(2088.881 644.253)">
      <path id="패스_55" data-name="패스 55" d="M-3062.36,2206.451s-.887,21.3,2.282,27.506l-8.266,138h36.2l12.638-112.25,12,112.25h36.845l-12.853-165.505Z" transform="translate(3068.344 -2206.451)" fill="#2d79e9"/>
      <path id="패스_56" data-name="패스 56" d="M-3056.533,2206.451s-1.5,15.339,1.5,28.192l-8.14,136.884" transform="translate(3069.601 -2206.451)" fill="none" stroke="#0f1c46" stroke-width="1"/>
      <path id="패스_57" data-name="패스 57" d="M-3068.344,2333.9h37.06" transform="translate(3068.344 -2175.467)" fill="none" stroke="#0f1c46" stroke-width="1"/>
      <path id="패스_58" data-name="패스 58" d="M-3020.266,2333.9h37.7" transform="translate(3080.033 -2175.467)" fill="none" stroke="#0f1c46" stroke-width="1"/>
      <path id="패스_59" data-name="패스 59" d="M-3026.814,2234.645l14.139,129.814" transform="translate(3078.441 -2199.597)" fill="none" stroke="#0f1c46" stroke-width="1"/>
      <path id="패스_60" data-name="패스 60" d="M-3029.055,2258.083l4.749-44.491" transform="translate(3077.896 -2204.715)" fill="none" stroke="#0f1c46" stroke-width="1"/>
      <path id="패스_61" data-name="패스 61" d="M-3010.521,2206.451s.495,10.2,13.677,12.172" transform="translate(3082.402 -2206.451)" fill="none" stroke="#0f1c46" stroke-width="1"/>
      <path id="패스_62" data-name="패스 62" d="M-3043.973,2206.451s-3.3,10.525-14.666,12.337" transform="translate(3070.705 -2206.451)" fill="none" stroke="#0f1c46" stroke-width="1"/>
    </g>
    <path id="패스_545" data-name="패스 545" d="M-3062.722,2228.117h83.823l-6.684-59.6,17.823-11.975-19.216-28.405s-1.949-5.013-20.607-7.519c0,0-10.861,7.24-22.557-2.228,0,0-14.481.279-24.785,5.848,0,0-10.3,6.126-22.278,34.532l28.962,13.646S-3061.33,2192.193-3062.722,2228.117Z" transform="translate(5154.323 -1583.865)" fill="#f6633a"/>
    <path id="패스_546" data-name="패스 546" d="M-3075.147,2147.616l30.649,13.842" transform="translate(5155.57 -1576.502)" fill="none" stroke="#aa270b" stroke-width="1"/>
    <path id="패스_547" data-name="패스 547" d="M-3053.674,2164.854l10.876-16.973" transform="translate(5160.792 -1576.438)" fill="none" stroke="#aa270b" stroke-width="1"/>
    <path id="패스_548" data-name="패스 548" d="M-3002.629,2163.585l-4.119-24.717" transform="translate(5172.198 -1578.629)" fill="none" stroke="#aa270b" stroke-width="1"/>
    <path id="패스_549" data-name="패스 549" d="M-3003.434,2156.786l15.324-10.628" transform="translate(5173.004 -1576.856)" fill="none" stroke="#aa270b" stroke-width="1"/>
    <path id="패스_550" data-name="패스 550" d="M-3041.568,2118.875s13.259,15.442,27.924,2.423" transform="translate(5163.734 -1583.489)" fill="none" stroke="#aa270b" stroke-width="1"/>
    <path id="패스_551" data-name="패스 551" d="M-3038.923,2124.177l.778-10.209,3.981-2.308s-3.635-3.577,0-6.577c0,0,2.135-.981,3.231,1.846a45.721,45.721,0,0,0-.743-11.135,31.457,31.457,0,0,0,16.865,1.287s3.034,10.6,1.534,17.925a14.833,14.833,0,0,1-5.539,3.4l1.33,8.118S-3027.729,2133.928-3038.923,2124.177Z" transform="translate(5164.377 -1589.1)" fill="#ffcac2"/>
    <path id="패스_552" data-name="패스 552" d="M-3026.4,2108.611l7.678-.71a3.707,3.707,0,0,1-3.373,4.127S-3025.818,2112.073-3026.4,2108.611Z" transform="translate(5167.423 -1586.157)" fill="#fff"/>
    <path id="패스_553" data-name="패스 553" d="M-3029.324,2101.474a3.656,3.656,0,0,1,4.127-1.287" transform="translate(5166.71 -1588.084)" fill="none" stroke="#282435" stroke-linecap="round" stroke-width="1"/>
    <path id="패스_554" data-name="패스 554" d="M-3022.254,2099.436a2.672,2.672,0,0,1,3.24,0" transform="translate(5168.428 -1588.354)" fill="none" stroke="#282435" stroke-linecap="round" stroke-width="1"/>
    <ellipse id="타원_114" data-name="타원 114" cx="0.622" cy="1.243" rx="0.622" ry="1.243" transform="matrix(0.966, -0.259, 0.259, 0.966, 2139.976, 514.611)" fill="#282435"/>
    <ellipse id="타원_115" data-name="타원 115" cx="0.622" cy="1.243" rx="0.622" ry="1.243" transform="translate(2147.453 513.352) rotate(-14)" fill="#282435"/>
    <path id="패스_555" data-name="패스 555" d="M-3033.755,2109.758s1.59,6.7,12.888,5.62" transform="translate(5165.633 -1585.706)" fill="none" stroke="#fba79c" stroke-linecap="square" stroke-width="1"/>
    <path id="패스_556" data-name="패스 556" d="M-3022.154,2102s3.8,4.517,1.737,5.668a7.572,7.572,0,0,1-2.747.121" transform="translate(5168.208 -1587.592)" fill="none" stroke="#fba79c" stroke-linecap="round" stroke-width="1"/>
    <path id="패스_557" data-name="패스 557" d="M-3018.451,2102.1a3.788,3.788,0,0,1,2.356,3.858,2.3,2.3,0,0,1-1.6,2.185S-3018.041,2102.375-3018.451,2102.1Z" transform="translate(5169.354 -1587.567)" fill="#f7bcac"/>
    <g id="그룹_184" data-name="그룹 184" transform="translate(2111.618 586.963)">
      <path id="패스_79" data-name="패스 79" d="M-3034.279,2161.939l-13.845,56.553,41.341,10.53,13.358-57.137Z" transform="translate(3050.523 -2159.983)" fill="#b8c5e8"/>
      <path id="패스_80" data-name="패스 80" d="M-2995.78,2172.263l-.8-2.214-41.655-9.635,1.615,2.193Z" transform="translate(3052.927 -2160.354)" fill="#ededf7"/>
      <path id="패스_81" data-name="패스 81" d="M-3035.376,2160.366l-14.677,56.841,2.389,1.655,13.95-56.242Z" transform="translate(3050.053 -2160.366)" fill="#ededf7"/>
      <path id="패스_82" data-name="패스 82" d="M-2993.1,2172.239l-13.455,56.844-41.342-10.238,10.921-43.975s4.095-4.68,12.383-4.583a9.512,9.512,0,0,1,5.07-5.07Z" transform="translate(3050.578 -2159.186)" fill="#fff"/>
      <path id="패스_83" data-name="패스 83" d="M-3039.106,2174.989s3.335-12.35,17.4-9.687c0,0-4.06,2.032-4.9,5.272C-3026.6,2170.574-3032.005,2169.752-3039.106,2174.989Z" transform="translate(3052.715 -2159.256)" fill="#eeeef8"/>
      <g id="그룹_25" data-name="그룹 25" transform="translate(19.709 11.829) rotate(14)">
        <rect id="사각형_28" data-name="사각형 28" width="32.321" height="1.243" transform="translate(0 0)" fill="#eeeef6"/>
        <rect id="사각형_28-2" data-name="사각형 28" width="32.321" height="1.243" transform="translate(0 3.729)" fill="#eeeef6"/>
        <rect id="사각형_28-3" data-name="사각형 28" width="32.321" height="1.243" transform="translate(0 7.459)" fill="#eeeef6"/>
        <rect id="사각형_28-4" data-name="사각형 28" width="32.321" height="1.243" transform="translate(0 11.188)" fill="#eeeef6"/>
        <rect id="사각형_28-5" data-name="사각형 28" width="32.321" height="1.243" transform="translate(0 14.917)" fill="#eeeef6"/>
        <rect id="사각형_28-6" data-name="사각형 28" width="32.321" height="1.243" transform="translate(0 18.647)" fill="#eeeef6"/>
        <rect id="사각형_28-7" data-name="사각형 28" width="32.321" height="1.243" transform="translate(0 22.376)" fill="#eeeef6"/>
        <rect id="사각형_28-8" data-name="사각형 28" width="32.321" height="1.243" transform="translate(0 26.105)" fill="#eeeef6"/>
        <rect id="사각형_28-9" data-name="사각형 28" width="32.321" height="1.243" transform="translate(0 29.835)" fill="#eeeef6"/>
        <rect id="사각형_28-10" data-name="사각형 28" width="32.321" height="1.243" transform="translate(0 33.564)" fill="#eeeef6"/>
        <rect id="사각형_28-11" data-name="사각형 28" width="32.321" height="1.243" transform="translate(0 37.293)" fill="#eeeef6"/>
        <rect id="사각형_28-12" data-name="사각형 28" width="32.321" height="1.243" transform="translate(0 41.023)" fill="#eeeef6"/>
      </g>
    </g>
    <path id="패스_558" data-name="패스 558" d="M10.724,0s-24.882,47.913,1.153,52.856c0,0,39.218,13.182,64.759,7.085a12.312,12.312,0,0,0,2.5-2.594S84.12,55.4,84.359,54.48c0,0-.034-1.092-2.287-.99,0,0,1.058-1.741-1.161-2.219,0,0-9.866-.717-11.778-2.868,0,0-1.127-1.2,6.452-.444,0,0,3.687-1.058-5.667-2.526,0,0-43.117-7.124-39.567-18.532l6.592-16.1Z" transform="translate(2069.174 575.869) rotate(3)" fill="#ffcbc3"/>
    <path id="패스_559" data-name="패스 559" d="M-3026.785,2196.1a44.964,44.964,0,0,0,9.389.58" transform="translate(5163.599 -1564.715)" fill="none" stroke="#f4988d" stroke-width="0.5"/>
    <path id="패스_560" data-name="패스 560" d="M-3028.57,2198.9s1.912.887,10.105-.274" transform="translate(5164.407 -1564.1)" fill="none" stroke="#f4988d" stroke-width="0.5"/>
    <path id="패스_561" data-name="패스 561" d="M-3029.723,2201.341s2.082.649,8.6-1.229" transform="translate(5164.126 -1562.496)" fill="none" stroke="#f4988d" stroke-width="0.5"/>
  </g>
</svg>
