<svg xmlns="http://www.w3.org/2000/svg" width="167.48" height="334.928" viewBox="0 0 167.48 334.928">
  <g id="그룹_208" data-name="그룹 208" transform="translate(-4208.997 -312.693)">
    <path id="패스_526" data-name="패스 526" d="M-2620.283,2152.4s-8.8-13.917-9.1-18.431c0,0,.376-1.279,2.107.6,0,0-.978-3.988,2.783-1.806,0,0-3.084-5.492,1.429-3.085,0,0-10.081-14.068,2.784-.376,0,0-1.58-5.793,3.235-.9l11.661,12.563Z" transform="translate(6838.383 -1766.022)" fill="#ffcbc3"/>
    <path id="패스_527" data-name="패스 527" d="M-2560.469,2102.438s-1.644,1.027-1.37,3.8c0,0,.034,2.191,1.37,2.534" transform="translate(6856.3 -1771.178)" fill="#f4a795"/>
    <path id="패스_528" data-name="패스 528" d="M-2554.859,2118.418l-1.279,8.2s3.611,2.934,9.855,2.182c0,0,9.253-1.881,11.51-4.364l-.978-10.005-1.805-19.033-21.215.451-.451,1.806s-2.934,12.865,0,17.53C-2559.222,2115.184-2557.567,2118.267-2554.859,2118.418Z" transform="translate(6855.384 -1772.916)" fill="#ffcbc3"/>
    <path id="패스_530" data-name="패스 530" d="M-2560.624,2092.472s-2.528,6.6,2.68,7.524c0,0,6.945-.059,7.755-1.795,0,0,1.852,0,3.241,2.951,0,0,3.356,1.853,4.514.926,0,0,1.042,5.5,2.777,5.613,0,0,3.82,2.257,0,6.713,0,0-.868,3.588,1.968,2.894,0,0,4.919-3.761,4.746-8.218,0,0,4.34-10.011,1.157-12.442,0,0-3.24-2.547-2.951-4.167,0,0-2.141-4.687-7.7-2.72,0,0-3.357-3.646-10.185-1.562,0,0-3.935,3.356-5.729,2.546C-2558.348,2090.736-2561.28,2091.083-2560.624,2092.472Z" transform="translate(6855.208 -1774.854)" fill="#212237"/>
    <path id="패스_531" data-name="패스 531" d="M-2559.077,2099.111a3.055,3.055,0,0,1,3.161.831" transform="translate(6855.741 -1772.033)" fill="none" stroke="#212237" stroke-width="1"/>
    <path id="패스_532" data-name="패스 532" d="M-2552.43,2100.045a5.182,5.182,0,0,1,4.3,1.783" transform="translate(6857.382 -1771.772)" fill="none" stroke="#212237" stroke-width="1"/>
    <path id="패스_533" data-name="패스 533" d="M-2556.394,2101.927s-2.8,5.065-.912,5.9l2.371.628" transform="translate(6856.018 -1771.303)" fill="none" stroke="#f4a795" stroke-width="1"/>
    <path id="패스_534" data-name="패스 534" d="M-2558.27,2107.948s-.106,4.031,3.161,4.057c0,0,3.293-.211,3.978-3.082Z" transform="translate(6855.941 -1769.817)" fill="#fffeff"/>
    <ellipse id="타원_101" data-name="타원 101" cx="0.623" cy="1.247" rx="0.623" ry="1.247" transform="matrix(0.966, 0.259, -0.259, 0.966, 4297.105, 328.102)" fill="#212237"/>
    <ellipse id="타원_102" data-name="타원 102" cx="0.623" cy="1.247" rx="0.623" ry="1.247" transform="matrix(0.966, 0.259, -0.259, 0.966, 4305.456, 330.055)" fill="#212237"/>
    <path id="패스_535" data-name="패스 535" d="M-2555.534,2115.229s8.576,2.716,13.206-5.431" transform="translate(6856.616 -1769.36)" fill="none" stroke="#f4a795" stroke-width="1"/>
    <path id="패스_568" data-name="패스 568" d="M-2583.306,2340.181v5.275s10.97,3.487,21.376,1.2c.509-.109,1.354-.337,2.185-.612v-5.861Z" transform="translate(6849.759 -1713.726)" fill="#ffcbc3"/>
    <path id="패스_569" data-name="패스 569" d="M-2533.1,2340.181l.928,4.578s12.067,6.775,23.113,1.4l-1.3-5.976Z" transform="translate(6862.154 -1713.726)" fill="#ffcbc3"/>
    <g id="그룹_189" data-name="그룹 189" transform="translate(4244.07 630.585)">
      <path id="패스_46" data-name="패스 46" d="M-3020.863,2345.137l2.069,13.993s.669,1.338-2.738,1.4H-3066.8a7.816,7.816,0,0,1,0-5.293s.183-.791,2.434-3.65l19.226-8.092s6.448,2.616,12.168,2.494A81.8,81.8,0,0,0-3020.863,2345.137Z" transform="translate(3067.259 -2343.494)" fill="#011e3c"/>
      <path id="패스_48" data-name="패스 48" d="M-3053.389,2348.666s-10.044.18-12.636,7.128" transform="translate(3100.37 -2342.217)" fill="none" stroke="#2c78e8" stroke-width="1"/>
      <path id="패스_47" data-name="패스 47" d="M-3019.048,2354.383h-47.7" transform="translate(3066.928 -2340.806)" fill="none" stroke="#2c78e8" stroke-width="1"/>
      <path id="패스_49" data-name="패스 49" d="M-3032.781,2355.469s-2.06-6.038-3.744-6.506" transform="translate(3042.978 -2342.144)" fill="none" stroke="#2c78e8" stroke-width="1"/>
      <path id="패스_50" data-name="패스 50" d="M-3038.887,2350.188l-1.5-3.665" transform="translate(3053.443 -2342.747)" fill="none" stroke="#2c78e8" stroke-width="1"/>
      <path id="패스_51" data-name="패스 51" d="M-3040.758,2349.767l-1.585-3.807" transform="translate(3058.208 -2343.318)" fill="none" stroke="#2c78e8" stroke-width="1"/>
      <path id="패스_52" data-name="패스 52" d="M-3042.949,2348.622l-1.759-3.825" transform="translate(3063.348 -2343.324)" fill="none" stroke="#2c78e8" stroke-width="1"/>
    </g>
    <g id="그룹_190" data-name="그룹 190" transform="translate(4307.662 630.585)">
      <path id="패스_46-2" data-name="패스 46" d="M-3020.863,2345.137l2.069,13.993s.669,1.338-2.738,1.4H-3066.8a7.816,7.816,0,0,1,0-5.293s.183-.791,2.434-3.65l19.226-8.092s6.448,2.616,12.168,2.494A81.8,81.8,0,0,0-3020.863,2345.137Z" transform="translate(3067.259 -2343.494)" fill="#011e3c"/>
      <path id="패스_48-2" data-name="패스 48" d="M-3053.389,2348.666s-10.044.18-12.636,7.128" transform="translate(3100.37 -2342.217)" fill="none" stroke="#2c78e8" stroke-width="1"/>
      <path id="패스_47-2" data-name="패스 47" d="M-3019.048,2354.383h-47.7" transform="translate(3066.928 -2340.806)" fill="none" stroke="#2c78e8" stroke-width="1"/>
      <path id="패스_49-2" data-name="패스 49" d="M-3032.781,2355.469s-2.06-6.038-3.744-6.506" transform="translate(3042.978 -2342.144)" fill="none" stroke="#2c78e8" stroke-width="1"/>
      <path id="패스_50-2" data-name="패스 50" d="M-3038.887,2350.188l-1.5-3.665" transform="translate(3053.443 -2342.747)" fill="none" stroke="#2c78e8" stroke-width="1"/>
      <path id="패스_51-2" data-name="패스 51" d="M-3040.758,2349.767l-1.585-3.807" transform="translate(3058.208 -2343.318)" fill="none" stroke="#2c78e8" stroke-width="1"/>
      <path id="패스_52-2" data-name="패스 52" d="M-3042.949,2348.622l-1.759-3.825" transform="translate(3063.348 -2343.324)" fill="none" stroke="#2c78e8" stroke-width="1"/>
    </g>
    <path id="패스_570" data-name="패스 570" d="M-2576.133,2206.764l-12.247,166.956h37.388l10.743-112.808,13.322,112.808h37.6l-8.81-139.882s1.075-19.124,0-27.074Z" transform="translate(6848.506 -1746.667)" fill="#1f2677"/>
    <path id="패스_571" data-name="패스 571" d="M-2579.247,2218.11s7.95,1.075,13.752-11.173" transform="translate(6850.762 -1746.624)" fill="none" stroke="#3c52cc" stroke-width="1"/>
    <path id="패스_572" data-name="패스 572" d="M-2517.716,2218.134s-10.1-.883-13.107-11.2" transform="translate(6862.717 -1746.624)" fill="none" stroke="#3c52cc" stroke-width="1"/>
    <path id="패스_573" data-name="패스 573" d="M-2588.38,2334.114h37.817" transform="translate(6848.506 -1715.225)" fill="none" stroke="#3c52cc" stroke-width="1"/>
    <path id="패스_574" data-name="패스 574" d="M-2539.44,2334.114h37.388" transform="translate(6860.59 -1715.225)" fill="none" stroke="#3c52cc" stroke-width="1"/>
    <path id="패스_575" data-name="패스 575" d="M-2562.876,2367.041l14.4-133.221" transform="translate(6854.804 -1739.987)" fill="none" stroke="#3c52cc" stroke-width="1"/>
    <path id="패스_576" data-name="패스 576" d="M-2548.844,2260.785l-4.727-53.5" transform="translate(6857.101 -1746.539)" fill="none" stroke="#3c52cc" stroke-width="1"/>
    <path id="패스_577" data-name="패스 577" d="M-2557.1,2206.764l1.182,9.669,4.083,2.364" transform="translate(6856.229 -1746.667)" fill="none" stroke="#3c52cc" stroke-width="1"/>
    <path id="패스_578" data-name="패스 578" d="M-2519.928,2211.589s.215,17.189-1.934,20.843l8.38,139.882" transform="translate(6864.93 -1745.475)" fill="none" stroke="#3c52cc" stroke-width="1"/>
    <path id="패스_579" data-name="패스 579" d="M-2552.879,2120.525s-25.784,52.437-17.851,108.592h42.147s-12.6-96.485-2.355-109.873C-2530.937,2119.244-2544.242,2127.1-2552.879,2120.525Z" transform="translate(6852.49 -1768.274)" fill="#f7633b"/>
    <path id="패스_580" data-name="패스 580" d="M-2570.895,2234.01h13.537s-4.082-53.127,17.834-114.527a41.612,41.612,0,0,0-20.843,9.293l-25.355,32.446-19.983-21.057-18.264,15.685s24.067,37.817,38.247,37.388c0,0,10.958.859,17.62-7.306Z" transform="translate(6839.72 -1768.215)" fill="#b2d1ff"/>
    <path id="패스_581" data-name="패스 581" d="M-2539.5,2234.212h39.107l-2.149-22.078s19.124-5.157,19.553-15.471c0,0-8.81-49.421-26.644-67.255,0,0-11.6-7.95-29.867-10.744C-2539.5,2118.665-2549.6,2152.023-2539.5,2234.212Z" transform="translate(6859.467 -1768.418)" fill="#b2d1ff"/>
    <path id="패스_582" data-name="패스 582" d="M-2542.937,2188.971l27.438-10.083-14.546-30.578" transform="translate(6859.727 -1761.098)" fill="none" stroke="#4052a4" stroke-width="1"/>
    <path id="패스_583" data-name="패스 583" d="M-2543.99,2164.143s4.452-16.86,9.907-20.165l-5.95-5.289,8.265-2.479s2.149-15.371,4.462-15.206" transform="translate(6859.467 -1767.841)" fill="none" stroke="#4052a4" stroke-width="1"/>
    <path id="패스_584" data-name="패스 584" d="M-2540.551,2180.919l11.075,21.322" transform="translate(6860.316 -1753.047)" fill="none" stroke="#4052a4" stroke-width="1"/>
    <path id="패스_585" data-name="패스 585" d="M-2534.983,2200.092l30.413-6.446" transform="translate(6861.689 -1749.906)" fill="none" stroke="#4052a4" stroke-width="1"/>
    <path id="패스_586" data-name="패스 586" d="M-2578.994,2181.048s3.306-38.512,8.76-42.148" transform="translate(6850.825 -1763.422)" fill="none" stroke="#4052a4" stroke-width="1"/>
    <path id="패스_587" data-name="패스 587" d="M-2566.077,2164.26l-2.975-25.371,5.29-1.818-5.29-3.967,7.108-11.57" transform="translate(6853.28 -1767.709)" fill="none" stroke="#4052a4" stroke-width="1"/>
    <path id="패스_588" data-name="패스 588" d="M-2542.041,2199.24l-11.589-37.281a5.523,5.523,0,0,0-4.042-1.109Z" transform="translate(6856.089 -1758.019)" fill="#e7d6e6"/>
    <path id="패스_589" data-name="패스 589" d="M-2599.253,2163.424l11.932,37.654,55.648-1.663-12.812-35.991a4.594,4.594,0,0,0-4.694-2.738h-49S-2600.622,2160.49-2599.253,2163.424Z" transform="translate(6845.72 -1758.046)" fill="#f2f5fa"/>
    <circle id="타원_117" data-name="타원 117" cx="3.741" cy="3.741" r="3.741" transform="matrix(0.819, -0.574, 0.574, 0.819, 4271.959, 421.913)" fill="#dddef0"/>
    <path id="패스_590" data-name="패스 590" d="M-2537.011,2182.817l-19.325,4.577s-5.34,2.289,5.213,2.416c0,0-9.409,2.034-12.333,2.161,0,0-5.213,3.051,0,2.67,0,0-4.577,1.653,0,2.543a22.449,22.449,0,0,0,12.333,5.086l23.394-1.526Z" transform="translate(6854.088 -1752.579)" fill="#ffcac2"/>
  </g>
</svg>
