<svg xmlns="http://www.w3.org/2000/svg" width="343.523" height="248.941" viewBox="0 0 343.523 248.941">
  <g id="그룹_203" data-name="그룹 203" transform="translate(-565.988 -808.004)">
    <path id="패스_536" data-name="패스 536" d="M-2901.056,2206.526s-58.5,15.211-72.545,124.613c0,0-9.361,82.491,52.068,100.627,0,0,21.062,12.286,50.314,8.775H-2727.3s33.348-4.68,24.572-30.422l-104.137-65.524s-23.4-126.368-64.354-138.069C-2871.219,2206.526-2888.771,2200.676-2901.056,2206.526Z" transform="translate(3540.601 -1384.745)" fill="#fff" stroke="#abb5f0" stroke-width="1"/>
    <g id="그룹_164" data-name="그룹 164" transform="translate(767.314 1026.473)">
      <path id="패스_138" data-name="패스 138" d="M-2840.958,2343.726l-3.2,19.972h59.382s0-5.858-3.995-9.852l-22.367-10.12S-2829.506,2349.584-2840.958,2343.726Z" transform="translate(2844.153 -2334.987)" fill="#ffe1cd"/>
      <path id="패스_140" data-name="패스 140" d="M-2842.9,2348.6s11.394-.122,15.272,9.211" transform="translate(2844.835 -2332.329)" fill="none" stroke="#985037" stroke-width="1"/>
      <path id="패스_141" data-name="패스 141" d="M-2844.153,2353.856h58.142" transform="translate(2844.153 -2329.464)" fill="none" stroke="#985037" stroke-width="1"/>
      <path id="패스_142" data-name="패스 142" d="M-2813.352,2356.187s1.212-5.272,4.121-6.606" transform="translate(2860.948 -2331.794)" fill="none" stroke="#985037" stroke-width="1"/>
      <path id="패스_143" data-name="패스 143" d="M-2815.406,2346.993l-2.182,3.394" transform="translate(2858.638 -2333.206)" fill="none" stroke="#985037" stroke-width="1"/>
      <path id="패스_144" data-name="패스 144" d="M-2816.518,2345.9l-3.03,4.121" transform="translate(2857.569 -2333.805)" fill="none" stroke="#985037" stroke-width="1"/>
      <path id="패스_145" data-name="패스 145" d="M-2819.278,2345.111l-2.545,4.121" transform="translate(2856.329 -2334.233)" fill="none" stroke="#985037" stroke-width="1"/>
      <path id="패스_154" data-name="패스 154" d="M-2815.529,2338.071l2.906,8.969s-21.818,6.909-29.574-.969Z" transform="translate(2845.219 -2338.071)" fill="#985037"/>
    </g>
    <path id="패스_529" data-name="패스 529" d="M-2907.554,2220.714s-76.5,50.4-36.9,157.961c0,0,34.2,55.8,151.21,32.4l-18.451-74.706s-41.853-134.559-75.156-123.308C-2886.853,2213.063-2899,2212.163-2907.554,2220.714Z" transform="translate(3550.568 -1380.127)" fill="#eeeef8"/>
    <path id="패스_537" data-name="패스 537" d="M-2881.823,2270.1l16.387,42.2s32.158,2.253,52.028-20.279c0,0,37.281-37.281,37.281-43.016,0,0,1.434-1.844-5.94,3.072,0,0,13.724-12.9-2.869-3.072,0,0,14.953-13.52-1.434-4.506,0,0,12.086-12.5-6.555,0,0,0,4.916-7.989-5.735,1.639,0,0-49.775,38.305-54.077,37.076l-9.627-17.412Z" transform="translate(3590.926 -1365.653)" fill="#9a5037"/>
    <path id="패스_591" data-name="패스 591" d="M-2790.216,2354.7l9.854,17.842,49-34.085s-2.13-6.391-10.651-8.521l-23.966,6.391S-2771.309,2347.249-2790.216,2354.7Z" transform="translate(3640.876 -1316.031)" fill="#ffe0cb"/>
    <path id="패스_592" data-name="패스 592" d="M-2788.292,2350.859s11.393-7.212,18.059-1.273" transform="translate(3641.925 -1306.598)" fill="none" stroke="#985037" stroke-width="1"/>
    <path id="패스_593" data-name="패스 593" d="M-2785.7,2366.152l49.452-32.846" transform="translate(3643.338 -1314.196)" fill="none" stroke="#985037" stroke-width="1"/>
    <g id="그룹_191" data-name="그룹 191" transform="translate(693.406 909.225)">
      <path id="패스_178" data-name="패스 178" d="M-2889.828,2306.864l11.975-41.756s.63-3.465,6.3-2.835h59.088s3.152.945,1.261,5.83l-10.557,39.707Z" transform="translate(2893.154 -2262.197)" fill="#f2f5fa"/>
      <ellipse id="타원_24" data-name="타원 24" cx="5.408" cy="3.863" rx="5.408" ry="3.863" transform="translate(40.148 18.24)" fill="#dcddef"/>
      <path id="패스_179" data-name="패스 179" d="M-2874.7,2262.664a4.813,4.813,0,0,0-5.45,3.729l-11.834,40.091,3.371.43Z" transform="translate(2891.98 -2261.97)" fill="#dbdcee"/>
    </g>
    <path id="패스_594" data-name="패스 594" d="M-2761.3,2330.8s-.364,9.09,1.575,10.787" transform="translate(3656.629 -1315.565)" fill="none" stroke="#985037" stroke-width="1"/>
    <path id="패스_595" data-name="패스 595" d="M-2766.644,2332.444" transform="translate(3653.731 -1314.667)" fill="none" stroke="#707070" stroke-width="1"/>
    <path id="패스_596" data-name="패스 596" d="M-2766.644,2337.263v-5.211" transform="translate(3653.731 -1314.881)" fill="none" stroke="#985037" stroke-width="1"/>
    <path id="패스_597" data-name="패스 597" d="M-2768.684,2338.176V2332.6" transform="translate(3652.619 -1314.581)" fill="none" stroke="#985037" stroke-width="1"/>
    <path id="패스_598" data-name="패스 598" d="M-2771.174,2337.876v-4.728" transform="translate(3651.26 -1314.281)" fill="none" stroke="#985037" stroke-width="1"/>
    <path id="패스_599" data-name="패스 599" d="M-2794.88,2349.276l8.485,6.061s22.3-11.393,22.786-18.666l-11.151-9.091Z" transform="translate(3638.333 -1317.318)" fill="#985037"/>
    <path id="패스_600" data-name="패스 600" d="M-2900.764,2367.726s38.878-4.26,91.07-45l69.768,56.187,27.96-30.89s-63.11-59.382-87.876-64.175l-21.835,5.325Z" transform="translate(3580.597 -1341.166)" fill="#060c26"/>
    <g id="그룹_192" data-name="그룹 192" transform="translate(609.606 857.125)">
      <path id="패스_160" data-name="패스 160" d="M-2926.773,2352.732l58.606-2.167,18.435-68.621,4.3-1.434V2275.8l20.484-4.712s-7.783-27.448-26.629-35.437c0,0-20.894-5.736-25.4-4.507,0,0-12.085,9.218-24.99-2.663,0,0-20.074,1.639-26.424,9.832,0,0-16.388,20.893-17.822,37.485l37.9,10.857S-2916.121,2294.609-2926.773,2352.732Z" transform="translate(2946.211 -2228.481)" fill="#ffe0cb"/>
      <path id="패스_161" data-name="패스 161" d="M-2919.364,2229.048s.473,10.083,17.49,10.4c0,0,11.976,0,17.333-7.721" transform="translate(2960.85 -2228.172)" fill="none" stroke="#a2644d" stroke-width="1"/>
      <path id="패스_162" data-name="패스 162" d="M-2944.957,2255.737l37.028,11.187" transform="translate(2946.893 -2213.618)" fill="none" stroke="#a2644d" stroke-width="1"/>
      <path id="패스_163" data-name="패스 163" d="M-2918.133,2254.718s-4.413,14.5-3.309,17.8" transform="translate(2959.619 -2214.174)" fill="none" stroke="#a2644d" stroke-width="1"/>
      <path id="패스_164" data-name="패스 164" d="M-2885.918,2243.909s6.932,15.284,6.3,23.95" transform="translate(2979.087 -2220.067)" fill="none" stroke="#a2644d" stroke-width="1"/>
      <path id="패스_165" data-name="패스 165" d="M-2881.814,2257.628l20.128-5.357" transform="translate(2981.325 -2215.509)" fill="none" stroke="#a2644d" stroke-width="1"/>
    </g>
    <path id="패스_601" data-name="패스 601" d="M-2943.218,2260s-13.11,53.462,3.073,59.4c0,0,43.221,9.27,68.826,3.739l19.459-13.109s-12.5-3.277-6.35-4.507c0,0,13.928-3.277-8.809-3.072,0,0-52.848-2.458-46.7-14.953l5.531-18.641Z" transform="translate(3554.715 -1354.17)" fill="#9a5037"/>
    <g id="그룹_193" data-name="그룹 193" transform="translate(632.56 931.919)">
      <path id="패스_155" data-name="패스 155" d="M-2801.4,2382.041l-22.635-53.258s-46.6,52.459-84.68,44.47c0,0-25.563-6.923-22.369-47.4l40.742-3.2s47.666-51.394,76.425-45.27c0,0,19.173-5.858,43.671,68.969l9.054,23.167Z" transform="translate(2931.356 -2276.882)" fill="#131c5d"/>
      <path id="패스_156" data-name="패스 156" d="M-2923.6,2313.568s0,44.469,34.084,36.215c0,0,30.358-14.912,59.383-46.068,0,0,4.793-4.793,7.722,7.989l24.233,53.524" transform="translate(2935.589 -2262.732)" fill="none" stroke="#2c3f9e" stroke-width="1"/>
      <path id="패스_157" data-name="패스 157" d="M-2849.152,2344.776l40.743-12.25" transform="translate(2976.182 -2246.54)" fill="none" stroke="#2c3f9e" stroke-width="1"/>
      <path id="패스_158" data-name="패스 158" d="M-2910.319,2308.064s-4.569,9.927-13.394,9.927" transform="translate(2935.525 -2259.879)" fill="none" stroke="#2c3f9e" stroke-width="1"/>
    </g>
    <path id="패스_602" data-name="패스 602" d="M-2915.88,2231.552v10.085s3.467,6.3,16.86,5.357c0,0,7.247-.789,7.721-4.412v-11.03s5.357-1.575,5.988-8.981c0,0-1.1-12.606-5.988-16.387,0,0-17.807-1.891-19.066,5.83l-7.248,8.824v5.672Z" transform="translate(3571.41 -1383.625)" fill="#9a5037"/>
    <path id="패스_603" data-name="패스 603" d="M-2909.241,2222.629s7.272,2.424,12.484,0" transform="translate(3575.974 -1374.546)" fill="none" stroke="#2d1106" stroke-width="1"/>
    <path id="패스_604" data-name="패스 604" d="M-2905.2,2219.221s3.939,3.272,8.3,2.3c0,0,2.423-.243.969-5.09Z" transform="translate(3578.177 -1377.926)" fill="#fff"/>
    <path id="패스_605" data-name="패스 605" d="M-2902.574,2210.864l3.636,4.727a1.562,1.562,0,0,1-.727,2.425l-2.182.969" transform="translate(3579.61 -1380.962)" fill="none" stroke="#2d1106" stroke-width="1"/>
    <path id="패스_606" data-name="패스 606" d="M-2909.791,2211.6a5.494,5.494,0,0,1,4.727-2.061" transform="translate(3575.676 -1381.702)" fill="none" stroke="#2d1106" stroke-width="1"/>
    <path id="패스_607" data-name="패스 607" d="M-2902.574,2208.705a2.107,2.107,0,0,1,2.666-.849" transform="translate(3579.61 -1382.682)" fill="none" stroke="#2d1106" stroke-width="1"/>
    <ellipse id="타원_118" data-name="타원 118" cx="0.773" cy="1.545" rx="0.773" ry="1.545" transform="matrix(0.883, -0.469, 0.469, 0.883, 669.563, 832.201)" fill="#2d1106"/>
    <ellipse id="타원_119" data-name="타원 119" cx="0.773" cy="1.545" rx="0.773" ry="1.545" transform="matrix(0.883, -0.469, 0.469, 0.883, 679.017, 827.173)" fill="#2d1106"/>
    <path id="패스_608" data-name="패스 608" d="M-2907.333,2235.031s0,4.414-6.731,0c0,0-8.11-13.9-7.171-18.371,0,0,.552-5.573,3.42-5.241,0,0-.4-8.412,16.041-8.412,0,0,10.041-3.973,11.586-5.848,0,0,8.771-2.593,6.013,4.468,0,0-.276,9.655-6.013,9.792,0,0-14.952-.69-16.165,5.241,0,0-1.1,3.447-3.366,3.614,0,0,1.241,4.8,2.387,5.186l-2.055,1.269s-6.621-3.186-3.255,5.793C-2912.643,2232.521-2910.244,2235.568-2907.333,2235.031Z" transform="translate(3569.393 -1388.689)" fill="#2d1106"/>
    <path id="패스_609" data-name="패스 609" d="M-3687.056,2225.423s-33.559,42.3-30.859,74.255c0,0-1.35,59.854,20.251,81.005,0,0,40.052,44.1,126.009,25.2" transform="translate(4313.985 -1373.023)" fill="none" stroke="#abb5f0" stroke-width="1"/>
    <path id="패스_610" data-name="패스 610" d="M-2824.821,2244.181s-.848,5.7-3.515,7.757" transform="translate(3620.09 -1362.795)" fill="none" stroke="#6d221d" stroke-width="1"/>
    <path id="패스_611" data-name="패스 611" d="M-2826.062,2251.867s4.727-4.606,10.424-2.181" transform="translate(3621.332 -1360.177)" fill="none" stroke="#6d221d" stroke-width="1"/>
  </g>
</svg>
